<svg width="64" height="64" viewBox="0 0 64 64" fill="none" xmlns="http://www.w3.org/2000/svg">
<path d="M54.6275 41.3725C51.1421 37.8873 46.9936 35.3071 42.4674 33.7453C47.3151 30.4064 50.5 24.8185 50.5 18.5C50.5 8.29912 42.2009 0 32 0C21.7991 0 13.5 8.29912 13.5 18.5C13.5 24.8185 16.6849 30.4064 21.5327 33.7453C17.0065 35.3071 12.858 37.8873 9.37263 41.3725C3.32863 47.4166 0 55.4525 0 64H5C5 49.1121 17.1121 37 32 37C46.8879 37 59 49.1121 59 64H64C64 55.4525 60.6714 47.4166 54.6275 41.3725ZM32 32C24.5561 32 18.5 25.944 18.5 18.5C18.5 11.056 24.5561 5 32 5C39.4439 5 45.5 11.056 45.5 18.5C45.5 25.944 39.4439 32 32 32Z" fill="#8105D8"/>
</svg>
