<svg width="39" height="38" viewBox="0 0 39 38" fill="none" xmlns="http://www.w3.org/2000/svg">
<path d="M29.3674 25.3333V17.4167C29.3674 12.5558 26.7707 8.48668 22.2424 7.41001V6.33334C22.2424 5.01918 21.1816 3.95834 19.8674 3.95834C18.5532 3.95834 17.4924 5.01918 17.4924 6.33334V7.41001C12.9482 8.48668 10.3674 12.54 10.3674 17.4167V25.3333L7.20074 28.5V30.0833H32.5341V28.5L29.3674 25.3333ZM21.4507 25.3333H18.2841V22.1667H21.4507V25.3333ZM21.4507 19H18.2841V12.6667H21.4507V19ZM19.8674 34.8333C21.6091 34.8333 23.0341 33.4083 23.0341 31.6667H16.7007C16.7007 33.4083 18.1099 34.8333 19.8674 34.8333Z" fill="#8105D8"/>
</svg>
